<?xml version="1.0" encoding="UTF-8"?>
<!DOCTYPE svg PUBLIC "-//W3C//DTD SVG 1.1//EN" "http://www.w3.org/Graphics/SVG/1.1/DTD/svg11.dtd">
<svg version="1.2" width="127mm" height="127mm" viewBox="0 0 12700 12700" preserveAspectRatio="xMidYMid" fill-rule="evenodd" stroke-width="28.222" stroke-linejoin="round" xmlns="http://www.w3.org/2000/svg" xmlns:ooo="http://xml.openoffice.org/svg/export" xmlns:xlink="http://www.w3.org/1999/xlink" xmlns:presentation="http://sun.com/xmlns/staroffice/presentation" xmlns:smil="http://www.w3.org/2001/SMIL20/" xmlns:anim="urn:oasis:names:tc:opendocument:xmlns:animation:1.0" xmlns:svg="urn:oasis:names:tc:opendocument:xmlns:svg-compatible:1.0" xml:space="preserve">
 <defs class="ClipPathGroup">
  <clipPath id="presentation_clip_path" clipPathUnits="userSpaceOnUse">
   <rect x="0" y="0" width="12700" height="12700"/>
  </clipPath>
  <clipPath id="presentation_clip_path_shrink" clipPathUnits="userSpaceOnUse">
   <rect x="12" y="12" width="12675" height="12675"/>
  </clipPath>
 </defs>
 <defs class="TextShapeIndex">
  <g ooo:slide="id1" ooo:id-list="id3 id4 id5 id6 id7 id8 id9 id10 id11 id12 id13 id14 id15"/>
 </defs>
 <defs class="EmbeddedBulletChars">
  <g id="bullet-char-template-57356" transform="scale(0.00048828125,-0.00048828125)">
   <path d="M 580,1141 L 1163,571 580,0 -4,571 580,1141 Z"/>
  </g>
  <g id="bullet-char-template-57354" transform="scale(0.00048828125,-0.00048828125)">
   <path d="M 8,1128 L 1137,1128 1137,0 8,0 8,1128 Z"/>
  </g>
  <g id="bullet-char-template-10146" transform="scale(0.00048828125,-0.00048828125)">
   <path d="M 174,0 L 602,739 174,1481 1456,739 174,0 Z M 1358,739 L 309,1346 659,739 1358,739 Z"/>
  </g>
  <g id="bullet-char-template-10132" transform="scale(0.00048828125,-0.00048828125)">
   <path d="M 2015,739 L 1276,0 717,0 1260,543 174,543 174,936 1260,936 717,1481 1274,1481 2015,739 Z"/>
  </g>
  <g id="bullet-char-template-10007" transform="scale(0.00048828125,-0.00048828125)">
   <path d="M 0,-2 C -7,14 -16,27 -25,37 L 356,567 C 262,823 215,952 215,954 215,979 228,992 255,992 264,992 276,990 289,987 310,991 331,999 354,1012 L 381,999 492,748 772,1049 836,1024 860,1049 C 881,1039 901,1025 922,1006 886,937 835,863 770,784 769,783 710,716 594,584 L 774,223 C 774,196 753,168 711,139 L 727,119 C 717,90 699,76 672,76 641,76 570,178 457,381 L 164,-76 C 142,-110 111,-127 72,-127 30,-127 9,-110 8,-76 1,-67 -2,-52 -2,-32 -2,-23 -1,-13 0,-2 Z"/>
  </g>
  <g id="bullet-char-template-10004" transform="scale(0.00048828125,-0.00048828125)">
   <path d="M 285,-33 C 182,-33 111,30 74,156 52,228 41,333 41,471 41,549 55,616 82,672 116,743 169,778 240,778 293,778 328,747 346,684 L 369,508 C 377,444 397,411 428,410 L 1163,1116 C 1174,1127 1196,1133 1229,1133 1271,1133 1292,1118 1292,1087 L 1292,965 C 1292,929 1282,901 1262,881 L 442,47 C 390,-6 338,-33 285,-33 Z"/>
  </g>
  <g id="bullet-char-template-9679" transform="scale(0.00048828125,-0.00048828125)">
   <path d="M 813,0 C 632,0 489,54 383,161 276,268 223,411 223,592 223,773 276,916 383,1023 489,1130 632,1184 813,1184 992,1184 1136,1130 1245,1023 1353,916 1407,772 1407,592 1407,412 1353,268 1245,161 1136,54 992,0 813,0 Z"/>
  </g>
  <g id="bullet-char-template-8226" transform="scale(0.00048828125,-0.00048828125)">
   <path d="M 346,457 C 273,457 209,483 155,535 101,586 74,649 74,723 74,796 101,859 155,911 209,963 273,989 346,989 419,989 480,963 531,910 582,859 608,796 608,723 608,648 583,586 532,535 482,483 420,457 346,457 Z"/>
  </g>
  <g id="bullet-char-template-8211" transform="scale(0.00048828125,-0.00048828125)">
   <path d="M -4,459 L 1135,459 1135,606 -4,606 -4,459 Z"/>
  </g>
  <g id="bullet-char-template-61548" transform="scale(0.00048828125,-0.00048828125)">
   <path d="M 173,740 C 173,903 231,1043 346,1159 462,1274 601,1332 765,1332 928,1332 1067,1274 1183,1159 1299,1043 1357,903 1357,740 1357,577 1299,437 1183,322 1067,206 928,148 765,148 601,148 462,206 346,322 231,437 173,577 173,740 Z"/>
  </g>
 </defs>
<!--
 <g>
  <g id="id2" class="Master_Slide">
   <g id="bg-id2" class="Background"/>
   <g id="bo-id2" class="BackgroundObjects"/>
  </g>
 </g>
-->
 <g class="SlideGroup">
  <g>
   <g id="container-id1">
    <g id="id1" class="Slide" clip-path="url(#presentation_clip_path)">
     <g class="Page">
      <g class="com.sun.star.drawing.CustomShape">
       <g id="id3">
        <rect class="BoundingBox" stroke="none" fill="none" x="591" y="1131" width="11433" height="10798"/>
        <path fill="rgb(255,255,255)" stroke="none" d="M 12023,6530 C 12023,7478 11759,8408 11257,9229 10756,10050 10034,10731 9165,11205 8296,11679 7311,11928 6308,11928 5304,11928 4319,11679 3450,11205 2581,10731 1859,10050 1358,9229 856,8408 592,7478 592,6530 592,5582 856,4652 1358,3831 1859,3010 2581,2329 3450,1855 4319,1381 5304,1132 6307,1132 7311,1132 8296,1381 9165,1855 10034,2329 10756,3010 11257,3831 11759,4652 12023,5582 12023,6530 L 12023,6530 Z "/>
       </g>
      </g>
      <g class="com.sun.star.drawing.CustomShape">
       <g id="id4">
        <rect class="BoundingBox" stroke="none" fill="none" x="6147" y="6527" width="321" height="5"/>
        <path fill="rgb(114,159,207)" stroke="none" d="M 6466,6529 C 6466,6529 6459,6529 6445,6530 6431,6530 6411,6530 6387,6530 6362,6530 6335,6530 6307,6530 6279,6530 6252,6530 6228,6530 6203,6530 6183,6530 6169,6530 6155,6529 6148,6529 6148,6529 6148,6529 6155,6529 6169,6529 6183,6528 6203,6528 6228,6528 6252,6528 6279,6528 6307,6528 6335,6528 6362,6528 6387,6528 6411,6528 6431,6528 6445,6529 6459,6529 6466,6529 6466,6529 L 6466,6529 Z "/>
        <path fill="none" stroke="rgb(52,101,164)" d="M 6466,6529 C 6466,6529 6459,6529 6445,6530 6431,6530 6411,6530 6387,6530 6362,6530 6335,6530 6307,6530 6279,6530 6252,6530 6228,6530 6203,6530 6183,6530 6169,6530 6155,6529 6148,6529 6148,6529 6148,6529 6155,6529 6169,6529 6183,6528 6203,6528 6228,6528 6252,6528 6279,6528 6307,6528 6335,6528 6362,6528 6387,6528 6411,6528 6431,6528 6445,6529 6459,6529 6466,6529 6466,6529 Z "/>
       </g>
      </g>
      <g class="com.sun.star.drawing.ClosedBezierShape">
       <g id="id5">
        <rect class="BoundingBox" stroke="none" fill="none" x="1227" y="4365" width="10161" height="4129"/>
        <path fill="rgb(0,0,0)" stroke="none" d="M 1227,8493 C 3450,6588 2497,5953 1227,4365 5355,7540 9165,5953 11387,4365 10117,6588 10435,6588 11387,8493 7577,6905 6625,5953 1227,8493 Z "/>
       </g>
      </g>
      <g class="com.sun.star.drawing.ClosedBezierShape">
       <g id="id6">
        <rect class="BoundingBox" stroke="none" fill="none" x="4048" y="1411" width="4319" height="10238"/>
        <path fill="rgb(0,0,0)" stroke="none" d="M 8175,11647 C 6312,9388 5659,10329 4048,11569 7300,7502 5785,3663 4239,1411 6350,3492 6667,3492 8366,1489 6707,5268 5737,6202 8175,11647 Z "/>
       </g>
      </g>
      <g class="com.sun.star.drawing.CustomShape">
       <g id="id7">
        <rect class="BoundingBox" stroke="none" fill="none" x="427" y="966" width="11762" height="11127"/>
        <path fill="none" stroke="rgb(52,101,164)" stroke-width="330" stroke-linejoin="round" d="M 12023,6529 C 12023,7477 11759,8407 11257,9228 10756,10049 10034,10730 9165,11204 8296,11678 7311,11927 6308,11927 5304,11927 4319,11678 3450,11204 2581,10730 1859,10049 1358,9228 856,8407 592,7477 592,6529 592,5581 856,4651 1358,3830 1859,3009 2581,2328 3450,1854 4319,1380 5304,1131 6307,1131 7311,1131 8296,1380 9165,1854 10034,2328 10756,3009 11257,3830 11759,4651 12023,5581 12023,6529 L 12023,6529 Z "/>
       </g>
      </g>
      <g class="com.sun.star.drawing.CustomShape">
       <g id="id8">
        <rect class="BoundingBox" stroke="none" fill="none" x="10530" y="4252" width="955" height="955"/>
        <path fill="rgb(0,0,0)" stroke="none" d="M 11484,4729 C 11484,4813 11462,4895 11420,4968 11378,5040 11318,5100 11246,5142 11173,5184 11091,5206 11007,5206 10923,5206 10841,5184 10769,5142 10696,5100 10636,5040 10594,4968 10552,4895 10530,4813 10530,4729 10530,4645 10552,4563 10594,4491 10636,4418 10696,4358 10769,4316 10841,4274 10923,4252 11007,4252 11091,4252 11173,4274 11246,4316 11318,4358 11378,4418 11420,4491 11462,4563 11484,4645 11484,4729 L 11484,4729 Z "/>
       </g>
      </g>
      <g class="com.sun.star.drawing.CustomShape">
       <g id="id9">
        <rect class="BoundingBox" stroke="none" fill="none" x="10530" y="7952" width="955" height="955"/>
        <path fill="rgb(0,0,0)" stroke="none" d="M 11484,8429 C 11484,8513 11462,8595 11420,8668 11378,8740 11318,8800 11246,8842 11173,8884 11091,8906 11007,8906 10923,8906 10841,8884 10769,8842 10696,8800 10636,8740 10594,8668 10552,8595 10530,8513 10530,8429 10530,8345 10552,8263 10594,8191 10636,8118 10696,8058 10769,8016 10841,7974 10923,7952 11007,7952 11091,7952 11173,7974 11246,8016 11318,8058 11378,8118 11420,8191 11462,8263 11484,8345 11484,8429 L 11484,8429 Z "/>
       </g>
      </g>
      <g class="com.sun.star.drawing.CustomShape">
       <g id="id10">
        <rect class="BoundingBox" stroke="none" fill="none" x="7530" y="10552" width="955" height="955"/>
        <path fill="rgb(0,0,0)" stroke="none" d="M 8484,11029 C 8484,11113 8462,11195 8420,11268 8378,11340 8318,11400 8246,11442 8173,11484 8091,11506 8007,11506 7923,11506 7841,11484 7769,11442 7696,11400 7636,11340 7594,11268 7552,11195 7530,11113 7530,11029 7530,10945 7552,10863 7594,10791 7636,10718 7696,10658 7769,10616 7841,10574 7923,10552 8007,10552 8091,10552 8173,10574 8246,10616 8318,10658 8378,10718 8420,10791 8462,10863 8484,10945 8484,11029 L 8484,11029 Z "/>
       </g>
      </g>
      <g class="com.sun.star.drawing.CustomShape">
       <g id="id11">
        <rect class="BoundingBox" stroke="none" fill="none" x="4029" y="10551" width="957" height="957"/>
        <path fill="rgb(0,0,0)" stroke="none" d="M 4984,11029 C 4984,11113 4962,11195 4920,11268 4878,11340 4818,11400 4746,11442 4673,11484 4591,11506 4507,11506 4423,11506 4341,11484 4269,11442 4196,11400 4136,11340 4094,11268 4052,11195 4030,11113 4030,11029 4030,10945 4052,10863 4094,10791 4136,10718 4196,10658 4269,10616 4341,10574 4423,10552 4507,10552 4591,10552 4673,10574 4746,10616 4818,10658 4878,10718 4920,10791 4962,10863 4984,10945 4984,11029 L 4984,11029 Z "/>
        <path fill="none" stroke="rgb(52,101,164)" d="M 4984,11029 C 4984,11113 4962,11195 4920,11268 4878,11340 4818,11400 4746,11442 4673,11484 4591,11506 4507,11506 4423,11506 4341,11484 4269,11442 4196,11400 4136,11340 4094,11268 4052,11195 4030,11113 4030,11029 4030,10945 4052,10863 4094,10791 4136,10718 4196,10658 4269,10616 4341,10574 4423,10552 4507,10552 4591,10552 4673,10574 4746,10616 4818,10658 4878,10718 4920,10791 4962,10863 4984,10945 4984,11029 Z "/>
       </g>
      </g>
      <g class="com.sun.star.drawing.CustomShape">
       <g id="id12">
        <rect class="BoundingBox" stroke="none" fill="none" x="7530" y="1552" width="955" height="955"/>
        <path fill="rgb(0,0,0)" stroke="none" d="M 8484,2029 C 8484,2113 8462,2195 8420,2268 8378,2340 8318,2400 8246,2442 8173,2484 8091,2506 8007,2506 7923,2506 7841,2484 7769,2442 7696,2400 7636,2340 7594,2268 7552,2195 7530,2113 7530,2029 7530,1945 7552,1863 7594,1791 7636,1718 7696,1658 7769,1616 7841,1574 7923,1552 8007,1552 8091,1552 8173,1574 8246,1616 8318,1658 8378,1718 8420,1790 8462,1863 8484,1945 8484,2029 L 8484,2029 Z "/>
       </g>
      </g>
      <g class="com.sun.star.drawing.CustomShape">
       <g id="id13">
        <rect class="BoundingBox" stroke="none" fill="none" x="4230" y="1452" width="955" height="955"/>
        <path fill="rgb(0,0,0)" stroke="none" d="M 5184,1929 C 5184,2013 5162,2095 5120,2168 5078,2240 5018,2300 4946,2342 4873,2384 4791,2406 4707,2406 4623,2406 4541,2384 4469,2342 4396,2300 4336,2240 4294,2168 4252,2095 4230,2013 4230,1929 4230,1845 4252,1763 4294,1691 4336,1618 4396,1558 4469,1516 4541,1474 4623,1452 4707,1452 4791,1452 4873,1474 4946,1516 5018,1558 5078,1618 5120,1690 5162,1763 5184,1845 5184,1929 L 5184,1929 Z "/>
       </g>
      </g>
      <g class="com.sun.star.drawing.CustomShape">
       <g id="id14">
        <rect class="BoundingBox" stroke="none" fill="none" x="1130" y="7852" width="955" height="955"/>
        <path fill="rgb(0,0,0)" stroke="none" d="M 2084,8329 C 2084,8413 2062,8495 2020,8568 1978,8640 1918,8700 1846,8742 1773,8784 1691,8806 1607,8806 1523,8806 1441,8784 1369,8742 1296,8700 1236,8640 1194,8568 1152,8495 1130,8413 1130,8329 1130,8245 1152,8163 1194,8091 1236,8018 1296,7958 1368,7916 1441,7874 1523,7852 1607,7852 1691,7852 1773,7874 1845,7916 1918,7958 1978,8018 2020,8091 2062,8163 2084,8245 2084,8329 L 2084,8329 Z "/>
       </g>
      </g>
      <g class="com.sun.star.drawing.CustomShape">
       <g id="id15">
        <rect class="BoundingBox" stroke="none" fill="none" x="1030" y="4352" width="956" height="955"/>
        <path fill="rgb(0,0,0)" stroke="none" d="M 1984,4829 C 1984,4913 1962,4995 1920,5068 1878,5140 1818,5200 1746,5242 1673,5284 1591,5306 1507,5306 1423,5306 1341,5284 1269,5242 1196,5200 1136,5140 1094,5068 1052,4995 1030,4913 1030,4829 1030,4745 1052,4663 1094,4591 1136,4518 1196,4458 1268,4416 1341,4374 1423,4352 1507,4352 1591,4352 1673,4374 1745,4416 1818,4458 1878,4518 1920,4591 1962,4663 1984,4745 1984,4829 L 1984,4829 Z "/>
       </g>
      </g>
     </g>
    </g>
   </g>
  </g>
 </g>
</svg>